<svg width="250" height="350" viewBox="0 0 250 350" fill="none" xmlns="http://www.w3.org/2000/svg">
<rect width="250" height="350" rx="15" fill="#283436"/>
<g filter="url(#filter0_f)">
<path d="M115.598 144.072C115.99 140.193 120.962 138.846 123.26 141.996L134.723 157.711C135.71 159.065 137.238 159.92 138.908 160.054L154.971 161.344C158.737 161.646 160.266 166.346 157.398 168.806L146.569 178.095C144.465 179.9 143.948 182.949 145.34 185.346L150.22 193.754C152.132 197.046 149.083 200.998 145.413 199.984L127.29 194.978C125.756 194.554 124.116 194.785 122.759 195.615L108.911 204.085C105.685 206.058 101.683 203.153 102.559 199.475L106.123 184.514C106.622 182.418 105.908 180.22 104.273 178.817L92.6024 168.806C89.7343 166.346 91.2628 161.646 95.0294 161.344L109.225 160.204C111.992 159.982 114.206 157.814 114.485 155.052L115.598 144.072Z" stroke="#CA6C37" stroke-width="1.5"/>
</g>
<path d="M116.491 144.438C116.792 141.475 120.587 140.444 122.347 142.847L134.159 158.979C134.975 160.093 136.236 160.798 137.613 160.908L154.335 162.245C157.218 162.476 158.386 166.076 156.187 167.955L144.602 177.855C142.856 179.347 142.427 181.874 143.584 183.858L149.145 193.4C150.611 195.917 148.282 198.943 145.474 198.17L126.866 193.049C125.603 192.702 124.252 192.891 123.134 193.573L108.713 202.359C106.245 203.863 103.189 201.639 103.861 198.828L107.61 183.15C108.025 181.415 107.433 179.593 106.076 178.434L93.8132 167.955C91.6138 166.076 92.7816 162.476 95.6655 162.245L110.89 161.027C113.176 160.845 115.005 159.055 115.237 156.773L116.491 144.438Z" stroke="#F3FFFD" stroke-width="1.5"/>
<g filter="url(#filter1_f)">
<path d="M108.42 115.662C108.906 110.871 115.045 109.207 117.884 113.096L142.435 146.731C143.594 148.319 145.387 149.323 147.347 149.48L182.569 152.306C187.223 152.679 189.11 158.487 185.566 161.525L160.429 183.072C157.957 185.191 157.35 188.773 158.985 191.588L171.736 213.538C174.099 217.604 170.333 222.487 165.8 221.236L127.206 210.582C125.407 210.085 123.483 210.355 121.89 211.329L91.6127 229.835C87.6278 232.271 82.6848 228.681 83.7678 224.138L91.7553 190.629C92.3419 188.168 91.5031 185.586 89.5823 183.939L63.4344 161.525C59.8896 158.487 61.7774 152.679 66.4313 152.306L99.4113 149.66C102.66 149.399 105.258 146.855 105.587 143.612L108.42 115.662Z" stroke="#CA6C37" stroke-width="1.5"/>
</g>
<path d="M108.42 115.662C108.906 110.871 115.045 109.207 117.884 113.096L142.435 146.731C143.594 148.319 145.387 149.323 147.347 149.48L182.569 152.306C187.223 152.679 189.11 158.487 185.566 161.525L160.429 183.073C157.957 185.191 157.35 188.773 158.985 191.588L171.736 213.538C174.099 217.604 170.333 222.487 165.8 221.236L127.206 210.582C125.407 210.085 123.483 210.355 121.89 211.329L91.6127 229.835C87.6278 232.271 82.6848 228.681 83.7678 224.138L91.7553 190.629C92.3419 188.168 91.5031 185.586 89.5823 183.939L63.4344 161.525C59.8896 158.487 61.7774 152.679 66.4313 152.306L99.4113 149.66C102.66 149.399 105.258 146.855 105.587 143.612L108.42 115.662Z" stroke="#F3FFFD" stroke-width="1.5"/>
<path d="M20.306 33L23.69 21.21H25.418L28.676 33H27.614L26.876 30.282H22.106L21.35 33H20.306ZM26.642 29.382L24.698 22.11H24.392L22.358 29.382H26.642Z" fill="white"/>
<path d="M229.694 317L226.31 328.79H224.582L221.324 317H222.386L223.124 319.718H227.894L228.65 317H229.694ZM223.358 320.618L225.302 327.89H225.608L227.642 320.618H223.358Z" fill="white"/>
<defs>
<filter id="filter0_f" x="84.3625" y="133.494" width="81.2751" height="77.9807" filterUnits="userSpaceOnUse" color-interpolation-filters="sRGB">
<feFlood flood-opacity="0" result="BackgroundImageFix"/>
<feBlend mode="normal" in="SourceGraphic" in2="BackgroundImageFix" result="shape"/>
<feGaussianBlur stdDeviation="3" result="effect1_foregroundBlur"/>
</filter>
<filter id="filter1_f" x="54.8427" y="104.184" width="139.315" height="133.19" filterUnits="userSpaceOnUse" color-interpolation-filters="sRGB">
<feFlood flood-opacity="0" result="BackgroundImageFix"/>
<feBlend mode="normal" in="SourceGraphic" in2="BackgroundImageFix" result="shape"/>
<feGaussianBlur stdDeviation="3" result="effect1_foregroundBlur"/>
</filter>
</defs>
</svg>
