<svg width="250" height="350" viewBox="0 0 250 350" fill="none" xmlns="http://www.w3.org/2000/svg">
<rect width="250" height="350" rx="15" fill="#283436"/>
<path d="M87.9919 62.2426C88.1307 60.8743 89.8843 60.3986 90.6956 61.5092L96.3665 69.2731C96.7958 69.8609 97.4599 70.2324 98.1855 70.2905L106.209 70.9338C107.539 71.0404 108.078 72.7002 107.065 73.5682L101.521 78.3176C100.604 79.1025 100.379 80.4297 100.986 81.4727L103.626 86.0151C104.302 87.1769 103.226 88.5723 101.931 88.215L92.9892 85.7484C92.3232 85.5646 91.6108 85.6647 91.0212 86.0249L84.1084 90.2471C82.9698 90.9426 81.5579 89.9168 81.8675 88.619L83.6645 81.0854C83.8821 80.1735 83.5711 79.2166 82.8592 78.6067L76.9772 73.5682C75.9639 72.7002 76.5032 71.0404 77.8332 70.9338L85.1093 70.3505C86.3125 70.254 87.2749 69.3116 87.3967 68.1107L87.9919 62.2426Z" stroke="#F3FFFD"/>
<path d="M145.224 82.0585C141.394 80.9973 139.055 84.1007 134.596 84.1007C133.714 84.1007 130.816 83.1798 130.323 82.7214C129.611 82.0585 130.222 81.3563 130.753 81.2058C131.177 81.0854 133.085 80.6525 133.085 79.4501C133.172 77.5492 134.596 76.5147 135.308 75.8251C136.409 74.7587 137.801 74.101 138.545 73.782C142.866 71.9293 144.955 72.0765 147.503 72.0765C148.362 72.0765 148.21 70.4372 149.228 69.2735C150.246 68.1098 151.365 68.239 152.539 67.9633C154.322 67.5448 150.511 70.9976 151.214 72.3273C151.479 72.8289 158.128 73.9863 161.691 73.4113C163.827 73.0665 168.1 72.7217 168.177 71.2739C167.922 69.0668 170.237 65.1357 170.593 66.1701C170.712 66.5149 170.064 67.5242 170.593 68.239C170.89 68.6403 170.415 69.9631 170.949 70.3079C172.017 70.9976 172.684 69.8754 173.798 69.2735C174.911 68.6716 176.323 67.6182 175.934 68.9287C174.187 72.7905 171.79 73.8496 169.525 73.0665C168.941 72.4703 162.759 82.0413 151.214 81.7575C150.531 81.7408 152.875 84.2823 152.857 84.6167C152.789 86.1696 146.938 82.5333 145.224 82.0585Z" stroke="#F3FFFD"/>
<path d="M101.613 114.349C87.1306 104.909 80.7945 117.728 79.927 124.486C79.5841 126.275 76.3064 124.06 74.7223 124.486C71.2525 125.56 73.8607 129.019 75.3064 130.56C74.3064 135.56 76.3064 134.56 77.903 133.58C80.8064 132.06 81.4968 134.06 82.5294 135.369C85.2597 138.831 91.0713 137.202 92.2159 137.009C96.4677 136.291 103.94 130.616 108.698 129.108C114.317 127.326 111.059 124.337 108.698 123.145C106.384 122.071 107.306 118.06 101.613 114.349Z" stroke="#F3FFFD"/>
<path d="M137.25 124.529C140.237 128.264 149.926 133.822 153.553 135.029C155.75 134.029 166.25 127.529 168.75 122.529C172.355 115.318 163.812 118.529 164.25 117.029C167.75 105.029 157.729 109.529 157.229 108.529C156.311 106.695 156.28 104.432 152.25 104.029C146.635 103.469 147.265 111.099 145.25 110.529C134.936 107.616 141.25 118.362 140.25 118.029C135.25 116.366 135.25 122.029 137.25 124.529Z" stroke="#F3FFFD"/>
<path d="M149.416 133.029C143.918 133.029 143.918 138.029 152.799 138.029C162.527 138.029 162.527 133.029 156.5 133.029" stroke="#F3FFFD"/>
<path d="M148.992 155.243C149.131 153.874 150.884 153.399 151.696 154.509L157.366 162.273C157.796 162.861 158.46 163.232 159.185 163.291L167.209 163.934C168.539 164.04 169.078 165.7 168.065 166.568L162.521 171.318C161.604 172.102 161.379 173.43 161.986 174.473L164.626 179.015C165.302 180.177 164.226 181.572 162.931 181.215L153.989 178.748C153.323 178.565 152.611 178.665 152.021 179.025L145.108 183.247C143.97 183.943 142.558 182.917 142.867 181.619L144.665 174.085C144.882 173.174 144.571 172.217 143.859 171.607L137.977 166.568C136.964 165.7 137.503 164.04 138.833 163.934L146.109 163.35C147.312 163.254 148.275 162.312 148.397 161.111L148.992 155.243Z" stroke="#F3FFFD"/>
<path opacity="0.2" d="M87.9919 253.243C88.1307 251.874 89.8843 251.399 90.6956 252.509L96.3665 260.273C96.7958 260.861 97.4599 261.232 98.1855 261.291L106.209 261.934C107.539 262.04 108.078 263.7 107.065 264.568L101.521 269.318C100.604 270.102 100.379 271.43 100.986 272.473L103.626 277.015C104.302 278.177 103.226 279.572 101.931 279.215L92.9892 276.748C92.3232 276.565 91.6108 276.665 91.0212 277.025L84.1084 281.247C82.9698 281.943 81.5579 280.917 81.8675 279.619L83.6645 272.085C83.8821 271.174 83.5711 270.217 82.8592 269.607L76.9772 264.568C75.9639 263.7 76.5032 262.04 77.8332 261.934L85.1093 261.35C86.3125 261.254 87.2749 260.312 87.3967 259.111L87.9919 253.243Z" stroke="#F3FFFD"/>
<path d="M84.224 175.059C80.3945 173.997 78.055 177.101 73.5961 177.101C72.7138 177.101 69.8155 176.18 69.3232 175.721C68.611 175.059 69.2224 174.356 69.7525 174.206C70.1766 174.085 72.0849 173.653 72.0849 172.45C72.1718 170.549 73.5961 169.515 74.3083 168.825C75.4094 167.759 76.8008 167.101 77.5448 166.782C81.866 164.929 83.9553 165.076 86.5033 165.076C87.3617 165.076 87.2104 163.437 88.2282 162.273C89.246 161.11 90.3647 161.239 91.5392 160.963C93.322 160.545 89.5114 163.998 90.214 165.327C90.479 165.829 97.1285 166.986 100.691 166.411C102.827 166.066 107.1 165.722 107.177 164.274C106.922 162.067 109.237 158.136 109.593 159.17C109.712 159.515 109.064 160.524 109.593 161.239C109.89 161.64 109.415 162.963 109.949 163.308C111.017 163.998 111.684 162.875 112.798 162.273C113.911 161.672 115.323 160.618 114.934 161.929C113.187 165.79 110.79 166.85 108.525 166.066C107.941 165.47 101.759 175.041 90.214 174.758C89.5314 174.741 91.8749 177.282 91.8573 177.617C91.789 179.17 85.9375 175.533 84.224 175.059Z" stroke="#F3FFFD"/>
<path opacity="0.2" d="M145.224 272.059C141.394 270.997 139.055 274.101 134.596 274.101C133.714 274.101 130.816 273.18 130.323 272.721C129.611 272.059 130.222 271.356 130.753 271.206C131.177 271.085 133.085 270.653 133.085 269.45C133.172 267.549 134.596 266.515 135.308 265.825C136.409 264.759 137.801 264.101 138.545 263.782C142.866 261.929 144.955 262.076 147.503 262.076C148.362 262.076 148.21 260.437 149.228 259.273C150.246 258.11 151.365 258.239 152.539 257.963C154.322 257.545 150.511 260.998 151.214 262.327C151.479 262.829 158.128 263.986 161.691 263.411C163.827 263.066 168.1 262.722 168.177 261.274C167.922 259.067 170.237 255.136 170.593 256.17C170.712 256.515 170.064 257.524 170.593 258.239C170.89 258.64 170.415 259.963 170.949 260.308C172.017 260.998 172.684 259.875 173.798 259.273C174.911 258.672 176.323 257.618 175.934 258.929C174.187 262.79 171.79 263.85 169.525 263.066C168.941 262.47 162.759 272.041 151.214 271.758C150.531 271.741 152.875 274.282 152.857 274.617C152.789 276.17 146.938 272.533 145.224 272.059Z" stroke="#F3FFFD"/>
<path d="M162.613 207.349C148.131 197.909 141.794 210.728 140.927 217.486C140.584 219.275 137.306 217.06 135.722 217.486C132.252 218.56 134.861 222.019 136.306 223.56C135.306 228.56 137.306 227.56 138.903 226.58C141.806 225.06 142.497 227.06 143.529 228.369C146.26 231.831 152.071 230.202 153.216 230.009C157.468 229.291 164.94 223.616 169.698 222.108C175.317 220.326 172.059 217.337 169.698 216.145C167.384 215.071 168.306 211.06 162.613 207.349Z" stroke="#F3FFFD"/>
<path d="M76.2495 219.529C79.2373 223.264 88.9258 228.822 92.5532 230.029C94.7495 229.029 105.25 222.529 107.75 217.529C111.355 210.318 102.812 213.529 103.25 212.029C106.75 200.029 96.7285 204.529 96.2285 203.529C95.3111 201.695 95.28 199.432 91.2495 199.029C85.6349 198.469 86.2648 206.099 84.2495 205.529C73.9361 202.616 80.2495 213.362 79.2495 213.029C74.2495 211.366 74.2495 217.029 76.2495 219.529Z" stroke="#F3FFFD"/>
<path d="M88.4157 228.029C82.9175 228.029 82.9175 233.029 91.7992 233.029C101.527 233.029 101.527 228.029 95.4998 228.029" stroke="#F3FFFD"/>
<g filter="url(#filter0_f)">
<path d="M84.224 175.059C80.3945 173.997 78.055 177.101 73.5961 177.101C72.7138 177.101 69.8155 176.18 69.3232 175.721C68.611 175.059 69.2224 174.356 69.7525 174.206C70.1766 174.085 72.0849 173.653 72.0849 172.45C72.1718 170.549 73.5961 169.515 74.3083 168.825C75.4094 167.759 76.8008 167.101 77.5448 166.782C81.866 164.929 83.9553 165.076 86.5033 165.076C87.3617 165.076 87.2104 163.437 88.2282 162.273C89.246 161.11 90.3647 161.239 91.5392 160.963C93.322 160.545 89.5114 163.998 90.214 165.327C90.479 165.829 97.1285 166.986 100.691 166.411C102.827 166.066 107.1 165.722 107.177 164.274C106.922 162.067 109.237 158.136 109.593 159.17C109.712 159.515 109.064 160.524 109.593 161.239C109.89 161.64 109.415 162.963 109.949 163.308C111.017 163.998 111.684 162.875 112.798 162.273C113.911 161.672 115.323 160.618 114.934 161.929C113.187 165.79 110.79 166.85 108.525 166.066C107.941 165.47 101.759 175.041 90.214 174.758C89.5314 174.741 91.8749 177.282 91.8573 177.617C91.789 179.17 85.9375 175.533 84.224 175.059Z" stroke="#C5FFF5"/>
</g>
<g filter="url(#filter1_f)">
<path d="M101.613 114.349C87.1306 104.909 80.7945 117.728 79.927 124.486C79.5841 126.275 76.3064 124.06 74.7223 124.486C71.2525 125.56 73.8607 129.019 75.3064 130.56C74.3064 135.56 76.3064 134.56 77.903 133.58C80.8064 132.06 81.4968 134.06 82.5294 135.369C85.2597 138.831 91.0713 137.202 92.2159 137.009C96.4677 136.291 103.94 130.616 108.698 129.108C114.317 127.326 111.059 124.337 108.698 123.145C106.384 122.071 107.306 118.06 101.613 114.349Z" stroke="#D7B04C"/>
</g>
<g filter="url(#filter2_f)">
<path d="M162.613 207.349C148.131 197.909 141.794 210.728 140.927 217.486C140.584 219.275 137.306 217.06 135.722 217.486C132.252 218.56 134.861 222.019 136.306 223.56C135.306 228.56 137.306 227.56 138.903 226.58C141.806 225.06 142.497 227.06 143.529 228.369C146.26 231.831 152.071 230.202 153.216 230.009C157.468 229.291 164.94 223.616 169.698 222.108C175.317 220.326 172.059 217.337 169.698 216.145C167.384 215.071 168.306 211.06 162.613 207.349Z" stroke="#D7B04C"/>
</g>
<g filter="url(#filter3_f)">
<path d="M137.25 124.529C140.237 128.264 149.926 133.822 153.553 135.029C155.75 134.029 166.25 127.529 168.75 122.529C172.355 115.318 163.812 118.529 164.25 117.029C167.75 105.029 157.729 109.529 157.229 108.529C156.311 106.695 156.28 104.432 152.25 104.029C146.635 103.469 147.265 111.099 145.25 110.529C134.936 107.616 141.25 118.362 140.25 118.029C135.25 116.366 135.25 122.029 137.25 124.529Z" stroke="#EA5D5D"/>
<path d="M149.416 133.029C143.918 133.029 143.918 138.029 152.799 138.029C162.527 138.029 162.527 133.029 156.5 133.029" stroke="#EA5D5D"/>
</g>
<g filter="url(#filter4_f)">
<path d="M76.2495 219.529C79.2373 223.264 88.9258 228.822 92.5532 230.029C94.7495 229.029 105.25 222.529 107.75 217.529C111.355 210.318 102.812 213.529 103.25 212.029C106.75 200.029 96.7285 204.529 96.2285 203.529C95.3111 201.695 95.28 199.432 91.2495 199.029C85.6349 198.469 86.2648 206.099 84.2495 205.529C73.9361 202.616 80.2495 213.362 79.2495 213.029C74.2495 211.366 74.2495 217.029 76.2495 219.529Z" stroke="#EA5D5D"/>
<path d="M88.4157 228.029C82.9175 228.029 82.9175 233.029 91.7992 233.029C101.527 233.029 101.527 228.029 95.4998 228.029" stroke="#EA5D5D"/>
</g>
<g filter="url(#filter5_f)">
<path d="M87.9919 62.2426C88.1307 60.8743 89.8843 60.3986 90.6956 61.5092L96.3665 69.2731C96.7958 69.8609 97.4599 70.2324 98.1855 70.2905L106.209 70.9338C107.539 71.0404 108.078 72.7002 107.065 73.5682L101.521 78.3176C100.604 79.1025 100.379 80.4297 100.986 81.4727L103.626 86.0151C104.302 87.1769 103.226 88.5723 101.931 88.215L92.9892 85.7484C92.3232 85.5646 91.6108 85.6647 91.0212 86.0249L84.1084 90.2471C82.9698 90.9426 81.5579 89.9168 81.8675 88.619L83.6645 81.0854C83.8821 80.1735 83.5711 79.2166 82.8592 78.6067L76.9772 73.5682C75.9639 72.7002 76.5032 71.0404 77.8332 70.9338L85.1093 70.3505C86.3125 70.254 87.2749 69.3116 87.3967 68.1107L87.9919 62.2426Z" stroke="#CA6C37"/>
</g>
<g filter="url(#filter6_f)">
<path d="M148.992 155.243C149.131 153.874 150.884 153.399 151.696 154.509L157.366 162.273C157.796 162.861 158.46 163.232 159.185 163.291L167.209 163.934C168.539 164.04 169.078 165.7 168.065 166.568L162.521 171.318C161.604 172.102 161.379 173.43 161.986 174.473L164.626 179.015C165.302 180.177 164.226 181.572 162.931 181.215L153.989 178.748C153.323 178.565 152.611 178.665 152.021 179.025L145.108 183.247C143.97 183.943 142.558 182.917 142.867 181.619L144.665 174.085C144.882 173.174 144.571 172.217 143.859 171.607L137.977 166.568C136.964 165.7 137.503 164.04 138.833 163.934L146.109 163.35C147.312 163.254 148.275 162.312 148.397 161.111L148.992 155.243Z" stroke="#CA6C37"/>
</g>
<g filter="url(#filter7_f)">
<path d="M145.224 82.0585C141.394 80.9973 139.055 84.1007 134.596 84.1007C133.714 84.1007 130.816 83.1798 130.323 82.7214C129.611 82.0585 130.222 81.3563 130.753 81.2058C131.177 81.0854 133.085 80.6525 133.085 79.4501C133.172 77.5492 134.596 76.5147 135.308 75.8251C136.409 74.7587 137.801 74.101 138.545 73.782C142.866 71.9293 144.955 72.0765 147.503 72.0765C148.362 72.0765 148.21 70.4372 149.228 69.2735C150.246 68.1098 151.365 68.239 152.539 67.9633C154.322 67.5448 150.511 70.9976 151.214 72.3273C151.479 72.8289 158.128 73.9863 161.691 73.4113C163.827 73.0665 168.1 72.7217 168.177 71.2739C167.922 69.0668 170.237 65.1357 170.593 66.1701C170.712 66.5149 170.064 67.5242 170.593 68.239C170.89 68.6403 170.415 69.9631 170.949 70.3079C172.017 70.9976 172.684 69.8754 173.798 69.2735C174.911 68.6716 176.323 67.6182 175.934 68.9287C174.187 72.7905 171.79 73.8496 169.525 73.0665C168.941 72.4703 162.759 82.0413 151.214 81.7575C150.531 81.7408 152.875 84.2823 152.857 84.6167C152.789 86.1696 146.938 82.5333 145.224 82.0585Z" stroke="#C5FFF5"/>
</g>
<path d="M20.9 30.012C20.9 28.596 21.536 27.648 22.808 27.168C21.692 26.616 21.134 25.728 21.134 24.504C21.134 23.592 21.428 22.854 22.016 22.29C22.616 21.714 23.456 21.426 24.536 21.426C25.628 21.426 26.468 21.714 27.056 22.29C27.644 22.854 27.938 23.592 27.938 24.504C27.938 25.788 27.374 26.664 26.246 27.132C27.542 27.612 28.19 28.572 28.19 30.012C28.19 30.984 27.872 31.758 27.236 32.334C26.612 32.898 25.712 33.18 24.536 33.18C23.36 33.18 22.46 32.898 21.836 32.334C21.212 31.758 20.9 30.984 20.9 30.012ZM24.554 27.618C23.714 27.618 23.066 27.828 22.61 28.248C22.166 28.668 21.944 29.244 21.944 29.976C21.944 30.708 22.166 31.272 22.61 31.668C23.054 32.064 23.696 32.262 24.536 32.262C25.376 32.262 26.018 32.064 26.462 31.668C26.918 31.26 27.146 30.696 27.146 29.976C27.146 29.244 26.924 28.668 26.48 28.248C26.036 27.828 25.394 27.618 24.554 27.618ZM24.536 22.344C23.732 22.344 23.132 22.536 22.736 22.92C22.352 23.304 22.16 23.826 22.16 24.486C22.16 25.146 22.352 25.686 22.736 26.106C23.132 26.514 23.732 26.718 24.536 26.718C25.352 26.718 25.952 26.52 26.336 26.124C26.72 25.728 26.912 25.194 26.912 24.522C26.912 23.838 26.714 23.304 26.318 22.92C25.934 22.536 25.34 22.344 24.536 22.344Z" fill="white"/>
<path d="M229.1 319.988C229.1 321.404 228.464 322.352 227.192 322.832C228.308 323.384 228.866 324.272 228.866 325.496C228.866 326.408 228.572 327.146 227.984 327.71C227.384 328.286 226.544 328.574 225.464 328.574C224.372 328.574 223.532 328.286 222.944 327.71C222.356 327.146 222.062 326.408 222.062 325.496C222.062 324.212 222.626 323.336 223.754 322.868C222.458 322.388 221.81 321.428 221.81 319.988C221.81 319.016 222.128 318.242 222.764 317.666C223.388 317.102 224.288 316.82 225.464 316.82C226.64 316.82 227.54 317.102 228.164 317.666C228.788 318.242 229.1 319.016 229.1 319.988ZM225.446 322.382C226.286 322.382 226.934 322.172 227.39 321.752C227.834 321.332 228.056 320.756 228.056 320.024C228.056 319.292 227.834 318.728 227.39 318.332C226.946 317.936 226.304 317.738 225.464 317.738C224.624 317.738 223.982 317.936 223.538 318.332C223.082 318.74 222.854 319.304 222.854 320.024C222.854 320.756 223.076 321.332 223.52 321.752C223.964 322.172 224.606 322.382 225.446 322.382ZM225.464 327.656C226.268 327.656 226.868 327.464 227.264 327.08C227.648 326.696 227.84 326.174 227.84 325.514C227.84 324.854 227.648 324.314 227.264 323.894C226.868 323.486 226.268 323.282 225.464 323.282C224.648 323.282 224.048 323.48 223.664 323.876C223.28 324.272 223.088 324.806 223.088 325.478C223.088 326.162 223.286 326.696 223.682 327.08C224.066 327.464 224.66 327.656 225.464 327.656Z" fill="white"/>
<defs>
<filter id="filter0_f" x="62.4999" y="152.5" width="59" height="31.9999" filterUnits="userSpaceOnUse" color-interpolation-filters="sRGB">
<feFlood flood-opacity="0" result="BackgroundImageFix"/>
<feBlend mode="normal" in="SourceGraphic" in2="BackgroundImageFix" result="shape"/>
<feGaussianBlur stdDeviation="3" result="effect1_foregroundBlur"/>
</filter>
<filter id="filter1_f" x="66.4999" y="104.5" width="51.8063" height="39.5598" filterUnits="userSpaceOnUse" color-interpolation-filters="sRGB">
<feFlood flood-opacity="0" result="BackgroundImageFix"/>
<feBlend mode="normal" in="SourceGraphic" in2="BackgroundImageFix" result="shape"/>
<feGaussianBlur stdDeviation="3" result="effect1_foregroundBlur"/>
</filter>
<filter id="filter2_f" x="127.5" y="197.5" width="51.8063" height="39.5598" filterUnits="userSpaceOnUse" color-interpolation-filters="sRGB">
<feFlood flood-opacity="0" result="BackgroundImageFix"/>
<feBlend mode="normal" in="SourceGraphic" in2="BackgroundImageFix" result="shape"/>
<feGaussianBlur stdDeviation="3" result="effect1_foregroundBlur"/>
</filter>
<filter id="filter3_f" x="129.5" y="97.5" width="46.6398" height="47.0294" filterUnits="userSpaceOnUse" color-interpolation-filters="sRGB">
<feFlood flood-opacity="0" result="BackgroundImageFix"/>
<feBlend mode="normal" in="SourceGraphic" in2="BackgroundImageFix" result="shape"/>
<feGaussianBlur stdDeviation="3" result="effect1_foregroundBlur"/>
</filter>
<filter id="filter4_f" x="68.5001" y="192.5" width="46.6398" height="47.0294" filterUnits="userSpaceOnUse" color-interpolation-filters="sRGB">
<feFlood flood-opacity="0" result="BackgroundImageFix"/>
<feBlend mode="normal" in="SourceGraphic" in2="BackgroundImageFix" result="shape"/>
<feGaussianBlur stdDeviation="3" result="effect1_foregroundBlur"/>
</filter>
<filter id="filter5_f" x="69.9502" y="54.3916" width="44.1419" height="42.5816" filterUnits="userSpaceOnUse" color-interpolation-filters="sRGB">
<feFlood flood-opacity="0" result="BackgroundImageFix"/>
<feBlend mode="normal" in="SourceGraphic" in2="BackgroundImageFix" result="shape"/>
<feGaussianBlur stdDeviation="3" result="effect1_foregroundBlur"/>
</filter>
<filter id="filter6_f" x="130.95" y="147.392" width="44.1419" height="42.5816" filterUnits="userSpaceOnUse" color-interpolation-filters="sRGB">
<feFlood flood-opacity="0" result="BackgroundImageFix"/>
<feBlend mode="normal" in="SourceGraphic" in2="BackgroundImageFix" result="shape"/>
<feGaussianBlur stdDeviation="3" result="effect1_foregroundBlur"/>
</filter>
<filter id="filter7_f" x="123.5" y="59.5001" width="59" height="31.9999" filterUnits="userSpaceOnUse" color-interpolation-filters="sRGB">
<feFlood flood-opacity="0" result="BackgroundImageFix"/>
<feBlend mode="normal" in="SourceGraphic" in2="BackgroundImageFix" result="shape"/>
<feGaussianBlur stdDeviation="3" result="effect1_foregroundBlur"/>
</filter>
</defs>
</svg>
