<svg width="250" height="350" viewBox="0 0 250 350" fill="none" xmlns="http://www.w3.org/2000/svg">
<rect width="250" height="350" rx="15" fill="#283436"/>
<path d="M85.6647 181.021C73.9266 177.781 66.7556 187.255 53.0881 187.255C50.3837 187.255 41.4998 184.444 39.9906 183.044C37.8077 181.021 39.6818 178.877 41.3066 178.418C42.6065 178.05 48.4559 176.729 48.4559 173.058C48.7222 167.255 53.0881 164.097 55.271 161.992C58.6462 158.737 62.9112 156.729 65.1918 155.755C78.437 150.1 84.8412 150.549 92.6516 150.549C95.2826 150.549 94.819 145.545 97.9387 141.993C101.058 138.44 104.487 138.835 108.088 137.993C113.552 136.716 101.872 147.256 104.025 151.315C104.838 152.846 125.22 156.379 136.14 154.624C142.688 153.571 155.786 152.519 156.02 148.099C155.24 141.362 162.335 129.361 163.426 132.519C163.79 133.572 161.805 136.653 163.426 138.835C164.336 140.06 162.88 144.098 164.518 145.151C167.792 147.256 169.837 143.83 173.249 141.993C176.661 140.155 180.99 136.94 179.798 140.94C174.441 152.729 167.095 155.962 160.152 153.571C158.363 151.751 139.414 180.968 104.025 180.102C101.933 180.051 109.117 187.809 109.062 188.83C108.853 193.57 90.9172 182.47 85.6647 181.021Z" stroke="#F3FFFD" stroke-width="1.5"/>
<g filter="url(#filter0_f)">
<path d="M85.6647 181.021C73.9266 177.781 66.7556 187.255 53.0881 187.255C50.3837 187.255 41.4998 184.444 39.9906 183.044C37.8077 181.021 39.6818 178.877 41.3066 178.418C42.6065 178.05 48.4559 176.729 48.4559 173.058C48.7222 167.255 53.0881 164.097 55.271 161.992C58.6462 158.737 62.9112 156.729 65.1918 155.755C78.437 150.1 84.8412 150.549 92.6516 150.549C95.2826 150.549 94.819 145.545 97.9387 141.993C101.058 138.44 104.487 138.835 108.088 137.993C113.552 136.716 101.872 147.256 104.025 151.315C104.838 152.846 125.22 156.379 136.14 154.624C142.688 153.571 155.786 152.519 156.02 148.099C155.24 141.362 162.335 129.361 163.426 132.519C163.79 133.572 161.805 136.653 163.426 138.835C164.336 140.06 162.88 144.098 164.518 145.151C167.792 147.256 169.837 143.83 173.249 141.993C176.661 140.155 180.99 136.94 179.798 140.94C174.441 152.729 167.095 155.962 160.152 153.571C158.363 151.751 139.414 180.968 104.025 180.102C101.933 180.051 109.117 187.809 109.062 188.83C108.853 193.57 90.9172 182.47 85.6647 181.021Z" stroke="#C5FFF5" stroke-width="1.5"/>
</g>
<path d="M139 189.67C149.058 183.356 168.347 173.221 165.033 183.19C161.72 193.159 169.872 189.657 175 186.5C181.903 181.848 196.392 174.418 194.025 183.19C191.067 194.156 200.533 190.168 210 183.19" stroke="#F3FFFD" stroke-width="1.5"/>
<g filter="url(#filter1_f)">
<path d="M139 189.67C149.058 183.356 168.347 173.221 165.033 183.19C161.72 193.159 169.872 189.657 175 186.5C181.903 181.848 196.392 174.418 194.025 183.19C191.067 194.156 200.533 190.168 210 183.19" stroke="#C5FFF5" stroke-width="1.5"/>
</g>
<path d="M104 208.67C114.058 202.356 133.347 192.221 130.033 202.19C126.72 212.159 134.872 208.657 140 205.5C146.903 200.848 161.392 193.418 159.025 202.19C156.067 213.156 165.533 209.168 175 202.19" stroke="#F3FFFD" stroke-width="1.5"/>
<g filter="url(#filter2_f)">
<path d="M104 208.67C114.058 202.356 133.347 192.221 130.033 202.19C126.72 212.159 134.872 208.657 140 205.5C146.903 200.848 161.392 193.418 159.025 202.19C156.067 213.156 165.533 209.168 175 202.19" stroke="#C5FFF5" stroke-width="1.5"/>
</g>
<path d="M21.71 22.47V21.57H27.272V29.796C27.272 30.948 26.882 31.752 26.102 32.208C25.334 32.652 23.978 32.976 22.034 33.18L21.908 32.244C23.576 32.064 24.722 31.818 25.346 31.506C25.97 31.182 26.282 30.612 26.282 29.796V22.47H21.71Z" fill="white"/>
<path d="M228.29 327.53V328.43H222.728V320.204C222.728 319.052 223.118 318.248 223.898 317.792C224.666 317.348 226.022 317.024 227.966 316.82L228.092 317.756C226.424 317.936 225.278 318.182 224.654 318.494C224.03 318.818 223.718 319.388 223.718 320.204V327.53H228.29Z" fill="white"/>
<defs>
<filter id="filter0_f" x="32.2499" y="125.25" width="154.5" height="71.4998" filterUnits="userSpaceOnUse" color-interpolation-filters="sRGB">
<feFlood flood-opacity="0" result="BackgroundImageFix"/>
<feBlend mode="normal" in="SourceGraphic" in2="BackgroundImageFix" result="shape"/>
<feGaussianBlur stdDeviation="3" result="effect1_foregroundBlur"/>
</filter>
<filter id="filter1_f" x="132.601" y="172.25" width="83.8437" height="24.4986" filterUnits="userSpaceOnUse" color-interpolation-filters="sRGB">
<feFlood flood-opacity="0" result="BackgroundImageFix"/>
<feBlend mode="normal" in="SourceGraphic" in2="BackgroundImageFix" result="shape"/>
<feGaussianBlur stdDeviation="3" result="effect1_foregroundBlur"/>
</filter>
<filter id="filter2_f" x="97.6013" y="191.25" width="83.8437" height="24.4986" filterUnits="userSpaceOnUse" color-interpolation-filters="sRGB">
<feFlood flood-opacity="0" result="BackgroundImageFix"/>
<feBlend mode="normal" in="SourceGraphic" in2="BackgroundImageFix" result="shape"/>
<feGaussianBlur stdDeviation="3" result="effect1_foregroundBlur"/>
</filter>
</defs>
</svg>
