<svg width="184" height="184" viewBox="0 0 184 184" fill="none" xmlns="http://www.w3.org/2000/svg">
<path d="M76.8135 88C80.1468 70 81.4135 32.8 59.8135 28" stroke="#F3FFFD" stroke-width="2"/>
<path d="M97.8135 107C110.313 100.5 141.513 88.1999 166.313 90.9999" stroke="#F3FFFD" stroke-width="2"/>
<path d="M125.138 119.518C124.945 119.739 124.585 119.94 123.906 119.994C123.221 120.048 122.307 119.941 121.159 119.637C118.866 119.03 115.861 117.696 112.334 115.711C105.295 111.749 96.3653 105.299 87.2306 97.2939C78.0959 89.2888 70.5295 81.2828 65.678 74.8247C63.2472 71.5889 61.5309 68.7848 60.6281 66.5917C60.176 65.4932 59.9502 64.6006 59.9138 63.9149C59.8776 63.2342 60.0301 62.8518 60.2238 62.6307C60.4176 62.4096 60.7767 62.2083 61.4563 62.1548C62.1408 62.1009 63.0553 62.2076 64.2036 62.5117C66.4963 63.1188 69.5013 64.4523 73.0281 66.4374C80.0671 70.3994 88.9968 76.8497 98.1315 84.8548C107.266 92.8599 114.833 100.866 119.684 107.324C122.115 110.56 123.831 113.364 124.734 115.557C125.186 116.656 125.412 117.548 125.448 118.234C125.484 118.915 125.332 119.297 125.138 119.518Z" stroke="#F3FFFD" stroke-width="2"/>
<path d="M59.4431 62.0819L27.8215 147.367C26.6646 149.672 26.2788 156.066 29.7496 159.276C32.449 161.773 36.6909 165.039 44.4034 161.581L125 120.091" stroke="#F3FFFD" stroke-width="2"/>
<path d="M116.313 81C112.147 69.5 108.413 49.7 126.813 62.5C145.213 75.3 144.813 65.5 142.313 59C139.621 52 132.813 44.4 150.813 48C168.813 51.6 163.313 36.1667 158.313 28" stroke="#F3FFFD" stroke-width="2"/>
<path d="M37.8134 75.5C46.1467 68.8333 56.6134 56.2 31.8134 59C7.01337 61.8 25.48 50.1667 37.8134 44C41.8133 42 42.8134 35.7 24.8134 36.5C17.3135 36.5 12.3134 28.4 30.3134 20" stroke="#F3FFFD" stroke-width="2"/>
<rect x="59.4339" y="36.9122" width="7" height="7" rx="1" transform="rotate(48.0768 59.4339 36.9122)" stroke="#F3FFFD" stroke-width="2"/>
<rect x="93.4339" y="55.9122" width="7" height="7" rx="1" transform="rotate(48.0768 93.4339 55.9122)" stroke="#F3FFFD" stroke-width="2"/>
<rect x="132.434" y="30.9122" width="7" height="7" rx="1" transform="rotate(48.0768 132.434 30.9122)" stroke="#F3FFFD" stroke-width="2"/>
<rect x="153.62" y="119.412" width="7" height="7" rx="1" transform="rotate(48.0768 153.62 119.412)" stroke="#F3FFFD" stroke-width="2"/>
<rect x="144.62" y="102.412" width="7" height="7" rx="1" transform="rotate(48.0768 144.62 102.412)" stroke="#F3FFFD" stroke-width="2"/>
<rect x="30.6204" y="85.4122" width="7" height="7" rx="1" transform="rotate(48.0768 30.6204 85.4122)" stroke="#F3FFFD" stroke-width="2"/>
<rect x="126.62" y="135.412" width="7" height="7" rx="1" transform="rotate(48.0768 126.62 135.412)" stroke="#F3FFFD" stroke-width="2"/>
<g filter="url(#filter0_f)">
<path d="M76.8135 88C80.1468 70 81.4135 32.8 59.8135 28" stroke="#D7B04C"/>
<path d="M97.8135 107C110.313 100.5 141.513 88.1999 166.313 90.9999" stroke="#D7B04C"/>
<path d="M125.514 119.848C125.207 120.199 124.705 120.433 123.945 120.492C123.183 120.552 122.208 120.432 121.031 120.12C118.678 119.498 115.631 118.141 112.089 116.147C105.012 112.164 96.0537 105.691 86.9011 97.6699C77.7485 89.6491 70.156 81.6181 65.2782 75.125C62.8368 71.875 61.0919 69.0319 60.1658 66.782C59.7023 65.6561 59.455 64.705 59.4145 63.9414C59.3741 63.1803 59.54 62.6524 59.8478 62.3012C60.1556 61.9499 60.6572 61.7162 61.417 61.6563C62.1793 61.5963 63.1546 61.7166 64.3316 62.0283C66.6837 62.6512 69.7312 64.0079 73.2734 66.0017C80.3505 69.9851 89.3085 76.458 98.4611 84.4788C107.614 92.4996 115.206 100.531 120.084 107.024C122.525 110.274 124.27 113.117 125.196 115.367C125.66 116.493 125.907 117.444 125.948 118.207C125.988 118.968 125.822 119.496 125.514 119.848Z" stroke="#D7B04C"/>
<path d="M59.4431 62.0819L27.8215 147.367C26.6646 149.672 26.2788 156.066 29.7496 159.276C32.449 161.773 36.6909 165.039 44.4034 161.581L125 120.091" stroke="#D7B04C"/>
<path d="M116.313 81C112.147 69.5 108.413 49.7 126.813 62.5C145.213 75.3 144.813 65.5 142.313 59C139.621 52 132.813 44.4 150.813 48C168.813 51.6 163.313 36.1667 158.313 28" stroke="#D7B04C"/>
<path d="M37.8134 75.5C46.1467 68.8333 56.6134 56.2 31.8134 59C7.01337 61.8 25.48 50.1667 37.8134 44C41.8133 42 42.8134 35.7 24.8134 36.5C17.3135 36.5 12.3134 28.4 30.3134 20" stroke="#D7B04C"/>
<rect x="59.4718" y="36.2061" width="8" height="8" rx="1.5" transform="rotate(48.0768 59.4718 36.2061)" stroke="#D7B04C"/>
<rect x="93.4718" y="55.2061" width="8" height="8" rx="1.5" transform="rotate(48.0768 93.4718 55.2061)" stroke="#D7B04C"/>
<rect x="132.472" y="30.2061" width="8" height="8" rx="1.5" transform="rotate(48.0768 132.472 30.2061)" stroke="#D7B04C"/>
<rect x="153.658" y="118.706" width="8" height="8" rx="1.5" transform="rotate(48.0768 153.658 118.706)" stroke="#D7B04C"/>
<rect x="144.658" y="101.706" width="8" height="8" rx="1.5" transform="rotate(48.0768 144.658 101.706)" stroke="#D7B04C"/>
<rect x="30.6583" y="84.7061" width="8" height="8" rx="1.5" transform="rotate(48.0768 30.6583 84.7061)" stroke="#D7B04C"/>
<rect x="126.658" y="134.706" width="8" height="8" rx="1.5" transform="rotate(48.0768 126.658 134.706)" stroke="#D7B04C"/>
</g>
<g filter="url(#filter1_f)">
<path d="M76.8135 88C80.1468 70 81.4135 32.8 59.8135 28" stroke="#FFEBC4"/>
<path d="M97.8135 107C110.313 100.5 141.513 88.1999 166.313 90.9999" stroke="#FFEBC4"/>
<path d="M125.514 119.848C125.207 120.199 124.705 120.433 123.945 120.492C123.183 120.552 122.208 120.432 121.031 120.12C118.678 119.498 115.631 118.141 112.089 116.147C105.012 112.164 96.0537 105.691 86.9011 97.6699C77.7485 89.6491 70.156 81.6181 65.2782 75.125C62.8368 71.875 61.0919 69.0319 60.1658 66.782C59.7023 65.6561 59.455 64.705 59.4145 63.9414C59.3741 63.1803 59.54 62.6524 59.8478 62.3012C60.1556 61.9499 60.6572 61.7162 61.417 61.6563C62.1793 61.5963 63.1546 61.7166 64.3316 62.0283C66.6837 62.6512 69.7312 64.0079 73.2734 66.0017C80.3505 69.9851 89.3085 76.458 98.4611 84.4788C107.614 92.4996 115.206 100.531 120.084 107.024C122.525 110.274 124.27 113.117 125.196 115.367C125.66 116.493 125.907 117.444 125.948 118.207C125.988 118.968 125.822 119.496 125.514 119.848Z" stroke="#FFEBC4"/>
<path d="M59.4431 62.0819L27.8215 147.367C26.6646 149.672 26.2788 156.066 29.7496 159.276C32.449 161.773 36.6909 165.039 44.4034 161.581L125 120.091" stroke="#FFEBC4"/>
<path d="M116.313 81C112.147 69.5 108.413 49.7 126.813 62.5C145.213 75.3 144.813 65.5 142.313 59C139.621 52 132.813 44.4 150.813 48C168.813 51.6 163.313 36.1667 158.313 28" stroke="#FFEBC4"/>
<path d="M37.8134 75.5C46.1467 68.8333 56.6134 56.2 31.8134 59C7.01337 61.8 25.48 50.1667 37.8134 44C41.8133 42 42.8134 35.7 24.8134 36.5C17.3135 36.5 12.3134 28.4 30.3134 20" stroke="#FFEBC4"/>
<rect x="59.4718" y="36.2061" width="8" height="8" rx="1.5" transform="rotate(48.0768 59.4718 36.2061)" stroke="#FFEBC4"/>
<rect x="93.4718" y="55.2061" width="8" height="8" rx="1.5" transform="rotate(48.0768 93.4718 55.2061)" stroke="#FFEBC4"/>
<rect x="132.472" y="30.2061" width="8" height="8" rx="1.5" transform="rotate(48.0768 132.472 30.2061)" stroke="#FFEBC4"/>
<rect x="153.658" y="118.706" width="8" height="8" rx="1.5" transform="rotate(48.0768 153.658 118.706)" stroke="#FFEBC4"/>
<rect x="144.658" y="101.706" width="8" height="8" rx="1.5" transform="rotate(48.0768 144.658 101.706)" stroke="#FFEBC4"/>
<rect x="30.6583" y="84.7061" width="8" height="8" rx="1.5" transform="rotate(48.0768 30.6583 84.7061)" stroke="#FFEBC4"/>
<rect x="126.658" y="134.706" width="8" height="8" rx="1.5" transform="rotate(48.0768 126.658 134.706)" stroke="#FFEBC4"/>
</g>
<defs>
<filter id="filter0_f" x="11.5" y="13.5469" width="160.87" height="156.035" filterUnits="userSpaceOnUse" color-interpolation-filters="sRGB">
<feFlood flood-opacity="0" result="BackgroundImageFix"/>
<feBlend mode="normal" in="SourceGraphic" in2="BackgroundImageFix" result="shape"/>
<feGaussianBlur stdDeviation="3" result="effect1_foregroundBlur"/>
</filter>
<filter id="filter1_f" x="11.5" y="13.5469" width="160.87" height="156.035" filterUnits="userSpaceOnUse" color-interpolation-filters="sRGB">
<feFlood flood-opacity="0" result="BackgroundImageFix"/>
<feBlend mode="normal" in="SourceGraphic" in2="BackgroundImageFix" result="shape"/>
<feGaussianBlur stdDeviation="3" result="effect1_foregroundBlur"/>
</filter>
</defs>
</svg>
