<svg width="184" height="184" viewBox="0 0 184 184" fill="none" xmlns="http://www.w3.org/2000/svg">
<g opacity="0.4">
<path d="M76.8135 88C80.1468 70 81.4135 32.8 59.8135 28" stroke="#F3FFFD" stroke-width="2"/>
<path d="M97.8135 107C110.313 100.5 141.513 88.1999 166.313 90.9999" stroke="#F3FFFD" stroke-width="2"/>
<path d="M125.138 119.518C124.945 119.739 124.585 119.94 123.906 119.994C123.221 120.048 122.307 119.941 121.159 119.637C118.866 119.03 115.861 117.696 112.334 115.711C105.295 111.749 96.3653 105.299 87.2306 97.2939C78.0959 89.2888 70.5295 81.2828 65.678 74.8247C63.2472 71.5889 61.5309 68.7848 60.6281 66.5917C60.176 65.4932 59.9502 64.6006 59.9138 63.9149C59.8776 63.2342 60.0301 62.8518 60.2238 62.6307C60.4176 62.4096 60.7767 62.2083 61.4563 62.1548C62.1408 62.1009 63.0553 62.2076 64.2036 62.5117C66.4963 63.1188 69.5013 64.4523 73.0281 66.4374C80.0671 70.3994 88.9968 76.8497 98.1315 84.8548C107.266 92.8599 114.833 100.866 119.684 107.324C122.115 110.56 123.831 113.364 124.734 115.557C125.186 116.656 125.412 117.548 125.448 118.234C125.484 118.915 125.332 119.297 125.138 119.518Z" stroke="#F3FFFD" stroke-width="2"/>
<path d="M59.4431 62.0819L27.8215 147.367C26.6646 149.672 26.2788 156.066 29.7496 159.276C32.449 161.773 36.6909 165.039 44.4034 161.581L125 120.091" stroke="#F3FFFD" stroke-width="2"/>
<path d="M116.313 81C112.147 69.5 108.413 49.7 126.813 62.5C145.213 75.3 144.813 65.5 142.313 59C139.621 52 132.813 44.4 150.813 48C168.813 51.6 163.313 36.1667 158.313 28" stroke="#F3FFFD" stroke-width="2"/>
<path d="M37.8134 75.5C46.1467 68.8333 56.6134 56.2 31.8134 59C7.01337 61.8 25.48 50.1667 37.8134 44C41.8133 42 42.8134 35.7 24.8134 36.5C17.3135 36.5 12.3134 28.4 30.3134 20" stroke="#F3FFFD" stroke-width="2"/>
<rect x="59.4339" y="36.9122" width="7" height="7" rx="1" transform="rotate(48.0768 59.4339 36.9122)" stroke="#F3FFFD" stroke-width="2"/>
<rect x="93.4339" y="55.9122" width="7" height="7" rx="1" transform="rotate(48.0768 93.4339 55.9122)" stroke="#F3FFFD" stroke-width="2"/>
<rect x="132.434" y="30.9122" width="7" height="7" rx="1" transform="rotate(48.0768 132.434 30.9122)" stroke="#F3FFFD" stroke-width="2"/>
<rect x="153.62" y="119.412" width="7" height="7" rx="1" transform="rotate(48.0768 153.62 119.412)" stroke="#F3FFFD" stroke-width="2"/>
<rect x="144.62" y="102.412" width="7" height="7" rx="1" transform="rotate(48.0768 144.62 102.412)" stroke="#F3FFFD" stroke-width="2"/>
<rect x="30.6204" y="85.4122" width="7" height="7" rx="1" transform="rotate(48.0768 30.6204 85.4122)" stroke="#F3FFFD" stroke-width="2"/>
<rect x="126.62" y="135.412" width="7" height="7" rx="1" transform="rotate(48.0768 126.62 135.412)" stroke="#F3FFFD" stroke-width="2"/>
</g>
</svg>
