<svg width="250" height="350" viewBox="0 0 250 350" fill="none" xmlns="http://www.w3.org/2000/svg">
<rect width="250" height="350" rx="15" fill="#283436"/>
<path d="M20.72 26.988C20.72 26.052 20.78 25.242 20.9 24.558C21.02 23.874 21.212 23.256 21.476 22.704C22.016 21.588 23.024 21.03 24.5 21.03C26.18 21.042 27.284 21.828 27.812 23.388C28.124 24.288 28.28 25.476 28.28 26.952C28.28 28.992 28.004 30.516 27.452 31.524L28.334 32.532L27.614 33.18L26.894 32.298C26.306 32.886 25.508 33.18 24.5 33.18C23.06 33.18 22.058 32.592 21.494 31.416C20.978 30.348 20.72 28.872 20.72 26.988ZM21.926 24.684C21.866 25.092 21.824 25.464 21.8 25.8C21.788 26.136 21.782 26.604 21.782 27.204C21.782 27.792 21.812 28.368 21.872 28.932C21.944 29.484 22.07 30.036 22.25 30.588C22.622 31.704 23.372 32.262 24.5 32.262C25.22 32.262 25.796 32.01 26.228 31.506L24.896 29.922L25.58 29.292L26.732 30.66C27.056 29.844 27.218 28.608 27.218 26.952C27.23 25.392 27.092 24.276 26.804 23.604C26.492 22.86 26.078 22.38 25.562 22.164C25.25 22.02 24.896 21.948 24.5 21.948C24.104 21.948 23.75 22.02 23.438 22.164C23.126 22.296 22.874 22.494 22.682 22.758C22.49 23.022 22.328 23.304 22.196 23.604C22.076 23.904 21.986 24.264 21.926 24.684Z" fill="white"/>
<path d="M229.28 323.012C229.28 323.948 229.22 324.758 229.1 325.442C228.98 326.126 228.788 326.744 228.524 327.296C227.984 328.412 226.976 328.97 225.5 328.97C223.82 328.958 222.716 328.172 222.188 326.612C221.876 325.712 221.72 324.524 221.72 323.048C221.72 321.008 221.996 319.484 222.548 318.476L221.666 317.468L222.386 316.82L223.106 317.702C223.694 317.114 224.492 316.82 225.5 316.82C226.94 316.82 227.942 317.408 228.506 318.584C229.022 319.652 229.28 321.128 229.28 323.012ZM228.074 325.316C228.134 324.908 228.176 324.536 228.2 324.2C228.212 323.864 228.218 323.396 228.218 322.796C228.218 322.208 228.188 321.632 228.128 321.068C228.056 320.516 227.93 319.964 227.75 319.412C227.378 318.296 226.628 317.738 225.5 317.738C224.78 317.738 224.204 317.99 223.772 318.494L225.104 320.078L224.42 320.708L223.268 319.34C222.944 320.156 222.782 321.392 222.782 323.048C222.77 324.608 222.908 325.724 223.196 326.396C223.508 327.14 223.922 327.62 224.438 327.836C224.75 327.98 225.104 328.052 225.5 328.052C225.896 328.052 226.25 327.98 226.562 327.836C226.874 327.704 227.126 327.506 227.318 327.242C227.51 326.978 227.672 326.696 227.804 326.396C227.924 326.096 228.014 325.736 228.074 325.316Z" fill="white"/>
<path d="M119.835 143.07C85.5001 120.324 70.4787 151.213 68.4222 167.498C67.6091 171.808 59.8387 166.47 56.0831 167.498C47.8571 170.084 54.0405 178.42 57.468 182.132C55.0972 194.181 59.8387 191.771 63.6236 189.41C70.5071 185.747 72.1438 190.566 74.5917 193.721C81.0647 202.064 94.8423 198.138 97.556 197.673C107.636 195.942 125.35 182.268 136.63 178.634C149.953 174.34 142.228 167.138 136.63 164.264C131.146 161.678 133.332 152.012 119.835 143.07Z" stroke="#F3FFFD" stroke-width="1.5"/>
<g filter="url(#filter0_f)">
<path d="M119.835 143.07C85.5001 120.324 70.4787 151.213 68.4222 167.498C67.6091 171.808 59.8387 166.47 56.0831 167.498C47.8571 170.084 54.0405 178.42 57.468 182.132C55.0972 194.181 59.8387 191.771 63.6236 189.41C70.5071 185.747 72.1438 190.566 74.5917 193.721C81.0647 202.064 94.8423 198.138 97.556 197.673C107.636 195.942 125.35 182.268 136.63 178.634C149.953 174.34 142.228 167.138 136.63 164.264C131.146 161.678 133.332 152.012 119.835 143.07Z" stroke="#D7B04C" stroke-width="1.5"/>
</g>
<path d="M164.816 195.666C144.663 182.515 135.846 200.373 134.639 209.788C134.162 212.28 129.601 209.193 127.397 209.788C122.568 211.283 126.198 216.102 128.209 218.248C126.818 225.214 129.601 223.821 131.823 222.456C135.863 220.338 136.824 223.124 138.26 224.948C142.06 229.771 150.147 227.502 151.739 227.233C157.656 226.232 168.053 218.327 174.674 216.226C182.494 213.744 177.96 209.58 174.674 207.919C171.455 206.423 172.738 200.835 164.816 195.666Z" stroke="#F3FFFD" stroke-width="1.5"/>
<g filter="url(#filter1_f)">
<path d="M164.816 195.666C144.663 182.515 135.846 200.373 134.639 209.788C134.162 212.28 129.601 209.193 127.397 209.788C122.568 211.283 126.198 216.102 128.209 218.248C126.818 225.214 129.601 223.821 131.823 222.456C135.863 220.338 136.824 223.124 138.26 224.948C142.06 229.771 150.147 227.502 151.739 227.233C157.656 226.232 168.053 218.327 174.674 216.226C182.494 213.744 177.96 209.58 174.674 207.919C171.455 206.423 172.738 200.835 164.816 195.666Z" stroke="#D7B04C" stroke-width="1.5"/>
</g>
<path d="M183.816 124.666C163.663 111.515 154.846 129.373 153.639 138.788C153.162 141.28 148.601 138.193 146.397 138.788C141.568 140.283 145.198 145.102 147.209 147.248C145.818 154.214 148.601 152.821 150.823 151.456C154.863 149.338 155.824 152.124 157.26 153.948C161.06 158.771 169.147 156.502 170.739 156.233C176.656 155.232 187.053 147.327 193.674 145.226C201.494 142.744 196.96 138.58 193.674 136.919C190.455 135.423 191.738 129.835 183.816 124.666Z" stroke="#F3FFFD" stroke-width="1.5"/>
<g filter="url(#filter2_f)">
<path d="M183.816 124.666C163.663 111.515 154.846 129.373 153.639 138.788C153.162 141.28 148.601 138.193 146.397 138.788C141.568 140.283 145.198 145.102 147.209 147.248C145.818 154.214 148.601 152.821 150.823 151.456C154.863 149.338 155.824 152.124 157.26 153.948C161.06 158.771 169.147 156.502 170.739 156.233C176.656 155.232 187.053 147.327 193.674 145.226C201.494 142.744 196.96 138.58 193.674 136.919C190.455 135.423 191.738 129.835 183.816 124.666Z" stroke="#D7B04C" stroke-width="1.5"/>
</g>
<defs>
<filter id="filter0_f" x="45.2499" y="128.25" width="105.5" height="77.5" filterUnits="userSpaceOnUse" color-interpolation-filters="sRGB">
<feFlood flood-opacity="0" result="BackgroundImageFix"/>
<feBlend mode="normal" in="SourceGraphic" in2="BackgroundImageFix" result="shape"/>
<feGaussianBlur stdDeviation="3" result="effect1_foregroundBlur"/>
</filter>
<filter id="filter1_f" x="118.25" y="184.25" width="67.4998" height="50.5" filterUnits="userSpaceOnUse" color-interpolation-filters="sRGB">
<feFlood flood-opacity="0" result="BackgroundImageFix"/>
<feBlend mode="normal" in="SourceGraphic" in2="BackgroundImageFix" result="shape"/>
<feGaussianBlur stdDeviation="3" result="effect1_foregroundBlur"/>
</filter>
<filter id="filter2_f" x="137.25" y="113.25" width="67.4998" height="50.5" filterUnits="userSpaceOnUse" color-interpolation-filters="sRGB">
<feFlood flood-opacity="0" result="BackgroundImageFix"/>
<feBlend mode="normal" in="SourceGraphic" in2="BackgroundImageFix" result="shape"/>
<feGaussianBlur stdDeviation="3" result="effect1_foregroundBlur"/>
</filter>
</defs>
</svg>
